# xmcd
#
# Track frame offsets:
#	150
#	11769
#	26936
#	37033
#	53191
#	75447
#	98212
#	117927
#	140264
#	151508
#	164870
#	181475
#
# Disc length: 2617 seconds
#
# Revision: 0
# Processed by: cddbd v1.5.2PL0 Copyright (c) Steve Scherf et al.
# Submitted via: audiograbber 1.83.01
#
DISCID=990a370c
DTITLE=Mister Blues - Sach Blues
DYEAR=2010
DGENRE=Blues
TTITLE0=Nadine
TTITLE1=Solche Maedels
TTITLE2=Kamasutra Kati
TTITLE3=Ich bin Lipper
TTITLE4=Wachmann
TTITLE5=Denk bitte auch mal nach
TTITLE6=Weight Watcher's Leid
TTITLE7=Pommes rot-weiss
TTITLE8=Schamhaar an der Wand
TTITLE9=Mutti sacht
TTITLE10=Hartz IV
TTITLE11=Poppen kannste knicken
EXTD=
EXTT0=
EXTT1=
EXTT2=
EXTT3=
EXTT4=
EXTT5=
EXTT6=
EXTT7=
EXTT8=
EXTT9=
EXTT10=
EXTT11=
PLAYORDER=
